<svg id="Layer_1" data-name="Layer 1" xmlns="http://www.w3.org/2000/svg" viewBox="0 0 333.42 336.11"><defs><style>.cls-1{fill:#324a5e;}.cls-2{fill:#e6e9ee;}.cls-3,.cls-4{fill:#fff;stroke:#324a5e;stroke-miterlimit:10;}.cls-3{stroke-width:1.03px;}.cls-5{fill:#2b3b4e;}</style></defs><title>001-industrial-robot-1</title><path class="cls-1" d="M398.8,260.8l-6.4,10a6.14,6.14,0,0,1-7.6,2L358,260a7.12,7.12,0,0,1-2.8-3.2L344.8,228a7.8,7.8,0,0,1,.4-5.2l2.4-3.6,9.6,6.4-0.8,1.2,8.8,24,20,9.6,3.6-5.6a5.41,5.41,0,0,1,8-1.6C400,254.8,400.8,258.4,398.8,260.8Z" transform="translate(-87.2 -77.09)"/><path class="cls-1" d="M419.6,228.8l-6.4,10a5.77,5.77,0,1,1-9.6-6.4l3.6-5.6-16.8-14.4-25.6,2-0.8,1.2-9.6-6.4,2.4-3.6c0.8-1.6,2.8-2.4,4.4-2.8l30.8-2.4a8.06,8.06,0,0,1,4.4,1.2l22.8,19.2A7.25,7.25,0,0,1,419.6,228.8Z" transform="translate(-87.2 -77.09)"/><path class="cls-2" d="M370.4,226.8a5.41,5.41,0,0,1-8,1.6l-21.6-14,6.4-9.6,21.6,14A6.11,6.11,0,0,1,370.4,226.8Z" transform="translate(-87.2 -77.09)"/><path class="cls-3" d="M226,334.8v57.8H138.4V334.8l4.8,9a10.67,10.67,0,0,0,9.6,6h58.4c4,0,7.6-2.14,10-6Z" transform="translate(-87.2 -77.09)"/><path class="cls-1" d="M277.2,413.2H87.2v-8.4a15.37,15.37,0,0,1,15.6-15.6H261.2a15.37,15.37,0,0,1,15.6,15.6v8.4h0.4Z" transform="translate(-87.2 -77.09)"/><path class="cls-1" d="M328.8,176.8h0l-20.4,30.4-94.8-52.4,1.2-47.6v-0.8A29.91,29.91,0,0,0,202,82V81.6Z" transform="translate(-87.2 -77.09)"/><path class="cls-4" d="M214.8,106.8v0.8l-3.2,117.6H153.2L156.4,106A29.21,29.21,0,0,1,214.8,106.8Z" transform="translate(-87.2 -77.09)"/><circle class="cls-1" cx="98" cy="30.91" r="19.2"/><circle class="cls-5" cx="98" cy="30.91" r="13.6"/><circle class="cls-1" cx="98" cy="30.91" r="8"/><path class="cls-1" d="M143.2,343.2L114,292.8a11.2,11.2,0,0,1,0-11.2l29.2-50.4a10.77,10.77,0,0,1,9.6-5.6h58.4a10.77,10.77,0,0,1,9.6,5.6L250,281.6a11.2,11.2,0,0,1,0,11.2l-29.2,50.4a10.77,10.77,0,0,1-9.6,5.6h-58A11,11,0,0,1,143.2,343.2Z" transform="translate(-87.2 -77.09)"/><circle class="cls-5" cx="95.2" cy="209.71" r="24.8"/><path class="cls-5" d="M182.4,332a45.2,45.2,0,1,1,45.2-45.2A45.41,45.41,0,0,1,182.4,332Zm0-82.4A37.6,37.6,0,1,0,220,287.2C219.6,266.4,202.8,249.6,182.4,249.6Z" transform="translate(-87.2 -77.09)"/><path class="cls-4" d="M325.6,227.2L309.2,216a5.69,5.69,0,0,1-1.6-7.6l21.2-32a5.69,5.69,0,0,1,7.6-1.6L352.8,186a5.69,5.69,0,0,1,1.6,7.6l-21.2,32A5.4,5.4,0,0,1,325.6,227.2Z" transform="translate(-87.2 -77.09)"/></svg>