<svg id="Layer_1" data-name="Layer 1" xmlns="http://www.w3.org/2000/svg" viewBox="0 0 345.19 311.2"><defs><style>.cls-1{fill:#e6e9ee;}.cls-2{fill:#324a5e;opacity:0.83;}.cls-3{fill:#acb3ba;}</style></defs><title>002-computer-1</title><path class="cls-1" d="M378.8,289.6H131.6a16,16,0,0,1-16-16V114.4a16,16,0,0,1,16-16H378.8a16,16,0,0,1,16,16V273.2A16.14,16.14,0,0,1,378.8,289.6Z" transform="translate(-81.54 -98.4)"/><rect class="cls-2" x="50.06" y="19.2" width="247.6" height="152.8"/><path class="cls-1" d="M416.8,409.6H91.2c-6.4,0-11.2-6.4-9.2-12.4l31.6-100.8a9.85,9.85,0,0,1,9.2-6.8H385.6a9.48,9.48,0,0,1,9.2,6.8l31.6,100.8A9.88,9.88,0,0,1,416.8,409.6Z" transform="translate(-81.54 -98.4)"/><path class="cls-3" d="M404.4,358.8l-18-57.2a6.86,6.86,0,0,0-6.8-5.2H128a6.86,6.86,0,0,0-6.8,5.2l-18,57.2a4,4,0,0,0,4,5.2H400.4A3.66,3.66,0,0,0,404.4,358.8Z" transform="translate(-81.54 -98.4)"/><path class="cls-3" d="M289.2,397.6H218.8a2.18,2.18,0,0,1-2-2.8l4.4-19.2a2.66,2.66,0,0,1,2-1.6h61.6a1.83,1.83,0,0,1,2,1.6l4.4,19.2C291.6,396.4,290.8,397.6,289.2,397.6Z" transform="translate(-81.54 -98.4)"/></svg>