<svg id="Layer_1" data-name="Layer 1" xmlns="http://www.w3.org/2000/svg" viewBox="0 0 293.6 306.8"><defs><style>.cls-1{fill:#fff;}.cls-2{fill:#2b3b4e;}.cls-3{fill:#324a5e;}.cls-4{fill:#e6e9ee;}</style></defs><title>002-industrial-robot</title><path class="cls-1" d="M355.2,272h4.4v12H358l-16,20.8,2.8,22.4h6.8a6,6,0,0,1,0,12h-12a6.39,6.39,0,0,1-6-5.2l-4-30c0-1.6,0-3.2,1.2-4.4L350,274.4A7,7,0,0,1,355.2,272Z" transform="translate(-107.2 -106.4)"/><path class="cls-1" d="M400.8,303.6l-4,30a6.06,6.06,0,0,1-6,5.2h-12a6,6,0,0,1,0-12h6.8l2.8-22.4-15.6-20.8h-1.6v-12h4.4a5.7,5.7,0,0,1,4.8,2.4l19.2,25.2A8.06,8.06,0,0,1,400.8,303.6Z" transform="translate(-107.2 -106.4)"/><path class="cls-2" d="M371.2,248.8v40.4a6,6,0,0,1-12,0V248.8h12Z" transform="translate(-107.2 -106.4)"/><path class="cls-3" d="M387.2,112.4V242.8a6.15,6.15,0,0,1-6,6h-32a6.15,6.15,0,0,1-6-6V177.2h3.6a26.28,26.28,0,0,0,24.8-28.4,26.86,26.86,0,0,0-28.4-25.2h-0.4V112.4a6.15,6.15,0,0,1,6-6h32C384.8,106.4,387.2,109.2,387.2,112.4Z" transform="translate(-107.2 -106.4)"/><path class="cls-2" d="M347.2,176.8l-68,3.6,7.6-13.2c4-5.2,8.4-26-9.6-36.4a23.35,23.35,0,0,0-8.8-3.2l75.2-4A27.1,27.1,0,0,1,372,148.8,26.41,26.41,0,0,1,347.2,176.8Z" transform="translate(-107.2 -106.4)"/><path class="cls-3" d="M234,341.6v49.6H154V341.6l4.4,7.6a10.42,10.42,0,0,0,8.8,5.2h53.6a9.94,9.94,0,0,0,8.8-5.2Z" transform="translate(-107.2 -106.4)"/><path class="cls-3" d="M286.8,167.2l-52,88-4.8-8.8a10.42,10.42,0,0,0-8.8-5.2H181.6l59.6-100.8a26.83,26.83,0,0,1,36.4-9.6C294.8,141.2,290.8,162,286.8,167.2Z" transform="translate(-107.2 -106.4)"/><path class="cls-2" d="M280.8,413.2H107.2v-7.6a14.34,14.34,0,0,1,14.4-14.4H266.8a14.34,14.34,0,0,1,14.4,14.4v7.6h-0.4Z" transform="translate(-107.2 -106.4)"/><path class="cls-1" d="M158.4,349.2l-26.8-46.4a9.76,9.76,0,0,1,0-10.4L158.4,246a10.42,10.42,0,0,1,8.8-5.2h53.6a9.94,9.94,0,0,1,8.8,5.2l26.8,46.4a9.76,9.76,0,0,1,0,10.4L230,349.2a10.42,10.42,0,0,1-8.8,5.2h-54A10.42,10.42,0,0,1,158.4,349.2Z" transform="translate(-107.2 -106.4)"/><circle class="cls-4" cx="236" cy="44" r="13.2"/><circle class="cls-4" cx="158.4" cy="48" r="13.2"/><circle class="cls-3" cx="86.8" cy="191.2" r="22.8"/><path class="cls-3" d="M194,339.2A41.2,41.2,0,1,1,235.2,298C235.6,320.4,216.8,339.2,194,339.2Zm0-75.6A34.4,34.4,0,1,0,228.4,298,34.4,34.4,0,0,0,194,263.6Z" transform="translate(-107.2 -106.4)"/></svg>