<svg id="Layer_1" data-name="Layer 1" xmlns="http://www.w3.org/2000/svg" viewBox="0 0 508 508"><defs><style>.cls-1{fill:#324a5e;}.cls-2{fill:#2b3b4e;}.cls-3{fill:#ced5e0;}.cls-4{fill:#e6e9ee;}.cls-5{fill:#8aa29e;}.cls-6{fill:#db5461;}.cls-7{fill:#f4bf4a;}</style></defs><title>education</title><circle class="cls-1" cx="254" cy="254" r="254"/><path class="cls-2" d="M58.4,416a253.93,253.93,0,0,0,391.2,0H58.4Z"/><path class="cls-3" d="M342,409.6a5.52,5.52,0,0,1-5.2-4l-25.2-93.2a21.84,21.84,0,0,0-20.8-16h-74a21.38,21.38,0,0,0-20.8,16L170.8,406a5.19,5.19,0,0,1-10-2.8L186,310a31.7,31.7,0,0,1,30.8-23.6h74.4A31.7,31.7,0,0,1,322,310l25.2,93.2a5.14,5.14,0,0,1-3.6,6.4H342Z"/><path class="cls-4" d="M191.2,338.4l4.8-17.6a2.35,2.35,0,0,0-2-2.8H183.2a2.66,2.66,0,0,0-2,1.6l-4.8,17.6a2.35,2.35,0,0,0,2,2.8h10.8A1.83,1.83,0,0,0,191.2,338.4Z"/><path class="cls-4" d="M331.6,337.2l-4.8-17.6a2.66,2.66,0,0,0-2-1.6H314a2.18,2.18,0,0,0-2,2.8l4.8,17.6a2.66,2.66,0,0,0,2,1.6h10.8A2.18,2.18,0,0,0,331.6,337.2Z"/><path class="cls-5" d="M346.8,416h-7.2a7.43,7.43,0,0,1-7.6-6.4l-4.4-28H344l10,23.6A7.83,7.83,0,0,1,346.8,416Z"/><path class="cls-5" d="M161.2,416h7.2a7.43,7.43,0,0,0,7.6-6.4l4.4-28H164l-10,23.6A7.83,7.83,0,0,0,161.2,416Z"/><rect class="cls-3" x="281.2" y="176.4" width="8.4" height="116"/><rect class="cls-3" x="218.4" y="176.4" width="8.4" height="116"/><path class="cls-6" d="M312,197.6a228,228,0,0,1-116,0c-7.6-2-12.4-9.6-10.8-16,4-16.8,7.6-33.6,11.6-50.4,1.6-6.8,7.6-10.4,13.2-9.2a172.67,172.67,0,0,0,88,0c5.6-1.6,11.6,2.4,13.2,9.2,4,16.8,7.6,33.6,11.6,50.4C324.4,188,319.6,195.6,312,197.6Z"/><path class="cls-7" d="M426.8,254H81.2a7,7,0,0,1-6.8-6.8V235.6a7,7,0,0,1,6.8-6.8H426.8a7,7,0,0,1,6.8,6.8v11.6A7,7,0,0,1,426.8,254Z"/><rect class="cls-3" x="397.2" y="254" width="10.8" height="162"/><rect class="cls-3" x="100" y="254" width="10.8" height="162"/><path class="cls-6" d="M254,300a295.44,295.44,0,0,1-79.2-10.8c-6.4-1.6-10-8.4-8.4-14.8s8.4-10,14.8-8.4a272.62,272.62,0,0,0,145.6,0c6.4-1.6,13.2,2,14.8,8.4s-2,13.2-8.4,14.8A295.44,295.44,0,0,1,254,300Z"/></svg>